<?xml version="1.0" encoding="UTF-8"?>
<svg width="539px" height="186px" viewBox="0 0 539 186" version="1.1" xmlns="http://www.w3.org/2000/svg" xmlns:xlink="http://www.w3.org/1999/xlink">
    <!-- Generator: Sketch 52.6 (67491) - http://www.bohemiancoding.com/sketch -->
    <title>white</title>
    <desc>Created with Sketch.</desc>
    <g id="Page-1" stroke="none" stroke-width="1" fill="none" fill-rule="evenodd">
        <g id="white" fill="#FFFFFF">
            <path d="M91.0185908,185.979311 C41.2297554,184.938664 1.06133625,144.770245 0.0206890172,94.9814092 L19.1592441,97.893798 C21.5729233,134.86381 51.1361898,164.427077 88.106202,166.840756 L91.0185908,185.979311 Z M0.0206890172,91.0185908 C1.06133625,41.2297554 41.2297554,1.06133625 91.0185908,0.0206890172 L88.106202,19.1592441 C51.1361898,21.5729233 21.5729233,51.1361898 19.1592441,88.106202 L0.0206890172,91.0185908 Z M94.9814092,0.0206890172 C144.770245,1.06133625 184.938664,41.2297554 185.979311,91.0185908 L166.840756,88.106202 C164.427077,51.1361898 134.86381,21.5729233 97.893798,19.1592441 L94.9814092,0.0206890172 Z M185.979311,94.9814092 C184.938664,144.770245 144.770245,184.938664 94.9814092,185.979311 L97.893798,166.840756 C134.86381,164.427077 164.427077,134.86381 166.840756,97.893798 L185.979311,94.9814092 Z M87.0252306,159.73723 C54.7894772,156.888556 29.1114443,131.210523 26.2627702,98.9747694 L63.4171184,104.628692 L49.1593796,136.84062 L81.3713081,122.582882 L87.0252306,159.73723 Z M26.2627702,87.0252306 C29.1114443,54.7894772 54.7894772,29.1114443 87.0252306,26.2627702 L81.3713081,63.4171184 L49.1593796,49.1593796 L63.4171184,81.3713081 L26.2627702,87.0252306 Z M98.9747694,26.2627702 C131.210523,29.1114443 156.888556,54.7894772 159.73723,87.0252306 L122.582882,81.3713081 L136.84062,49.1593796 L104.628692,63.4171184 L98.9747694,26.2627702 Z M159.73723,98.9747694 C156.888556,131.210523 131.210523,156.888556 98.9747694,159.73723 L104.628692,122.582882 L136.84062,136.84062 L122.582882,104.628692 L159.73723,98.9747694 Z" id="Combined-Shape" fill-rule="nonzero"></path>
            <polygon id="Path" fill-rule="nonzero" points="104 79 93 76.6528596 93 1"></polygon>
            <polygon id="Path" fill-rule="nonzero" transform="translate(87.500000, 146.000000) scale(-1, -1) translate(-87.500000, -146.000000) " points="93 185 82 182.65286 82 107"></polygon>
            <polygon id="Path-2" fill-rule="nonzero" transform="translate(65.598422, 118.938343) rotate(90.000000) translate(-65.598422, -118.938343) " points="53.660079 106.456495 51.8530052 118.824664 79.3438396 131.420192"></polygon>
            <polygon id="Path-2" fill-rule="nonzero" points="106.807074 108 105 120.36817 132.490834 132.963697"></polygon>
            <polygon id="Path-2" fill-rule="nonzero" transform="translate(120.481849, 66.745417) rotate(-90.000000) translate(-120.481849, -66.745417) " points="108.543505 54.2635686 106.736431 66.6317383 134.227266 79.2272659"></polygon>
            <polygon id="Path-2" fill-rule="nonzero" transform="translate(66.745417, 65.481849) rotate(-180.000000) translate(-66.745417, -65.481849) " points="54.8070738 53 53 65.3681697 80.4908345 77.9636973"></polygon>
            <text id="CMS" stroke="#FFFFFF" font-family="BigCaslon-Medium, Big Caslon" font-size="28" font-weight="400">
                <tspan x="60.292" y="103">CMS</tspan>
            </text>
            <path d="M232.083,50.386 L237.946,51.411 C237.167,54.363 236.429,55.962 235.199,57.561 C232.862,60.431 228.926,62.03 224.006,62.03 C219.537,62.03 215.97,60.677 213.469,58.094 C210.599,55.101 209,50.468 209,45.22 C209,39.808 210.722,35.052 213.797,31.977 C216.257,29.476 219.947,28.082 224.047,28.082 C227.245,28.082 229.664,28.697 231.919,30.05 C233.764,31.198 235.24,32.715 236.265,34.519 C236.757,35.38 237.044,36.118 237.536,37.676 L231.837,38.988 C231.263,37.184 230.894,36.405 230.074,35.462 C228.68,33.781 226.63,32.92 224.088,32.92 C218.266,32.92 214.74,37.471 214.74,45.015 C214.74,52.518 218.348,57.192 224.088,57.192 C226.958,57.192 229.418,56.085 230.73,54.158 C231.427,53.133 231.755,52.272 232.083,50.386 Z M256.765,28.082 C261.275,28.082 264.76,29.394 267.548,32.182 C270.541,35.175 272.14,39.644 272.14,44.974 C272.14,55.347 266.113,62.071 256.806,62.071 C247.499,62.071 241.513,55.388 241.513,44.974 C241.513,39.685 243.153,35.134 246.187,32.182 C249.016,29.394 252.419,28.082 256.765,28.082 Z M256.888,57.192 C262.751,57.192 266.4,52.518 266.4,44.974 C266.4,40.833 265.252,37.512 263.161,35.421 C261.48,33.781 259.307,32.92 256.847,32.92 C250.943,32.92 247.212,37.594 247.212,45.015 C247.212,49.115 248.401,52.559 250.533,54.691 C252.214,56.331 254.387,57.192 256.888,57.192 Z M296.658,61.374 L291.82,61.374 C291.615,60.062 290.959,58.135 290.016,55.839 L284.112,41.776 C283.333,39.931 282.964,38.824 282.021,35.503 C282.185,37.676 282.349,41.038 282.349,41.94 L282.349,55.388 C282.349,58.217 282.431,59.775 282.677,61.374 L276.937,61.374 C277.183,59.734 277.265,58.135 277.265,55.388 L277.265,34.806 C277.265,32.141 277.183,30.419 276.937,28.738 L284.44,28.738 C284.727,30.173 285.26,31.895 285.957,33.617 L294.28,53.953 L302.562,33.617 C303.382,31.608 303.751,30.296 304.038,28.738 L311.582,28.738 C311.336,30.706 311.254,32.059 311.254,34.806 L311.254,55.388 C311.254,58.381 311.336,59.857 311.582,61.374 L305.842,61.374 C306.088,59.693 306.17,58.217 306.17,55.388 L306.17,41.776 C306.334,38.209 306.457,36.118 306.498,35.503 C305.965,37.717 305.186,40.013 304.612,41.489 L298.462,55.921 C297.642,57.848 296.904,60.144 296.658,61.374 Z M323.472,61.374 L317.404,61.374 C317.65,59.734 317.732,58.299 317.732,56.085 L317.732,33.904 C317.732,31.936 317.65,30.46 317.404,28.615 C319.167,28.697 320.438,28.738 322.611,28.738 L331.18,28.738 C335.157,28.738 337.945,29.681 339.913,31.649 C341.594,33.289 342.455,35.749 342.455,38.701 C342.455,41.817 341.512,44.359 339.708,46.245 C337.699,48.254 334.911,49.197 330.975,49.197 L323.144,49.197 L323.144,56.044 C323.144,58.258 323.226,59.816 323.472,61.374 Z M323.144,44.482 L330.975,44.482 C334.747,44.482 336.797,42.473 336.797,38.865 C336.797,37.225 336.346,35.872 335.444,34.929 C334.501,33.904 333.148,33.453 330.975,33.453 L323.144,33.453 L323.144,44.482 Z M373.861,61.374 L367.137,61.374 C366.891,60.021 366.44,58.258 365.989,57.069 L364.349,52.6 L351.229,52.6 L349.589,57.069 C348.851,59.037 348.687,59.652 348.359,61.374 L341.635,61.374 C342.25,60.267 343.07,58.422 343.808,56.536 L352.828,32.879 C353.607,30.829 353.935,29.804 354.14,28.738 L361.274,28.738 C361.479,29.722 361.725,30.378 362.668,32.879 L371.77,56.536 C372.795,59.16 373.287,60.308 373.861,61.374 Z M362.873,47.885 L358.486,35.749 C358.322,35.298 358.199,34.806 357.748,33.453 C357.092,35.38 357.092,35.38 356.969,35.749 L352.705,47.885 L362.873,47.885 Z M376.157,51.821 L382.061,51.206 C382.225,53.051 382.471,53.871 383.209,54.814 C384.398,56.372 386.53,57.233 389.195,57.233 C393.295,57.233 395.755,55.388 395.755,52.313 C395.755,50.632 394.976,49.238 393.705,48.541 C392.475,47.885 392.229,47.844 386.571,46.532 C383.496,45.835 381.856,45.179 380.38,44.031 C378.289,42.391 377.223,40.136 377.223,37.389 C377.223,31.69 381.815,28 388.867,28 C393.541,28 397.067,29.435 399.076,32.141 C400.101,33.494 400.593,34.724 401.085,36.897 L395.222,37.594 C394.976,36.2 394.689,35.503 393.992,34.683 C392.926,33.412 391.122,32.715 388.867,32.715 C385.3,32.715 382.881,34.519 382.881,37.184 C382.881,38.906 383.783,40.095 385.669,40.915 C386.571,41.284 386.899,41.366 391.45,42.391 C394.689,43.088 396.657,43.867 398.133,44.892 C400.47,46.614 401.536,48.869 401.536,51.944 C401.536,54.855 400.634,57.233 398.953,58.914 C396.78,61.005 393.541,62.03 389.154,62.03 C385.792,62.03 382.512,61.21 380.544,59.898 C378.904,58.791 377.715,57.233 376.936,55.224 C376.567,54.281 376.403,53.502 376.157,51.821 Z M405.472,51.821 L411.376,51.206 C411.54,53.051 411.786,53.871 412.524,54.814 C413.713,56.372 415.845,57.233 418.51,57.233 C422.61,57.233 425.07,55.388 425.07,52.313 C425.07,50.632 424.291,49.238 423.02,48.541 C421.79,47.885 421.544,47.844 415.886,46.532 C412.811,45.835 411.171,45.179 409.695,44.031 C407.604,42.391 406.538,40.136 406.538,37.389 C406.538,31.69 411.13,28 418.182,28 C422.856,28 426.382,29.435 428.391,32.141 C429.416,33.494 429.908,34.724 430.4,36.897 L424.537,37.594 C424.291,36.2 424.004,35.503 423.307,34.683 C422.241,33.412 420.437,32.715 418.182,32.715 C414.615,32.715 412.196,34.519 412.196,37.184 C412.196,38.906 413.098,40.095 414.984,40.915 C415.886,41.284 416.214,41.366 420.765,42.391 C424.004,43.088 425.972,43.867 427.448,44.892 C429.785,46.614 430.851,48.869 430.851,51.944 C430.851,54.855 429.949,57.233 428.268,58.914 C426.095,61.005 422.856,62.03 418.469,62.03 C415.107,62.03 411.827,61.21 409.859,59.898 C408.219,58.791 407.03,57.233 406.251,55.224 C405.882,54.281 405.718,53.502 405.472,51.821 Z M229.787,109.374 L224.949,109.374 C224.744,108.062 224.088,106.135 223.145,103.839 L217.241,89.776 C216.462,87.931 216.093,86.824 215.15,83.503 C215.314,85.676 215.478,89.038 215.478,89.94 L215.478,103.388 C215.478,106.217 215.56,107.775 215.806,109.374 L210.066,109.374 C210.312,107.734 210.394,106.135 210.394,103.388 L210.394,82.806 C210.394,80.141 210.312,78.419 210.066,76.738 L217.569,76.738 C217.856,78.173 218.389,79.895 219.086,81.617 L227.409,101.953 L235.691,81.617 C236.511,79.608 236.88,78.296 237.167,76.738 L244.711,76.738 C244.465,78.706 244.383,80.059 244.383,82.806 L244.383,103.388 C244.383,106.381 244.465,107.857 244.711,109.374 L238.971,109.374 C239.217,107.693 239.299,106.217 239.299,103.388 L239.299,89.776 C239.463,86.209 239.586,84.118 239.627,83.503 C239.094,85.717 238.315,88.013 237.741,89.489 L231.591,103.921 C230.771,105.848 230.033,108.144 229.787,109.374 Z M280.299,109.374 L273.575,109.374 C273.329,108.021 272.878,106.258 272.427,105.069 L270.787,100.6 L257.667,100.6 L256.027,105.069 C255.289,107.037 255.125,107.652 254.797,109.374 L248.073,109.374 C248.688,108.267 249.508,106.422 250.246,104.536 L259.266,80.879 C260.045,78.829 260.373,77.804 260.578,76.738 L267.712,76.738 C267.917,77.722 268.163,78.378 269.106,80.879 L278.208,104.536 C279.233,107.16 279.725,108.308 280.299,109.374 Z M269.311,95.885 L264.924,83.749 C264.76,83.298 264.637,82.806 264.186,81.453 C263.53,83.38 263.53,83.38 263.407,83.749 L259.143,95.885 L269.311,95.885 Z M311.5,109.374 L305.022,109.374 C304.325,107.98 303.587,106.791 302.398,104.987 L291.82,89.038 C291.041,87.808 290.016,86.045 289.032,84.118 C289.073,84.692 289.073,84.692 289.196,86.209 C289.237,86.988 289.319,88.833 289.319,89.776 L289.319,103.224 C289.319,105.971 289.442,107.898 289.647,109.374 L283.661,109.374 C283.866,108.021 283.989,105.971 283.989,103.183 L283.989,82.027 C283.989,79.895 283.907,78.419 283.661,76.738 L290.057,76.738 C290.426,77.763 291.164,78.993 292.558,81.084 L302.931,96.705 C303.915,98.181 305.227,100.313 306.129,101.953 C305.965,100.354 305.842,97.894 305.842,96.172 L305.842,82.396 C305.842,79.977 305.76,78.296 305.514,76.738 L311.5,76.738 C311.254,78.378 311.172,79.895 311.172,82.396 L311.172,104.085 C311.172,106.381 311.254,107.939 311.5,109.374 Z M347.088,109.374 L340.364,109.374 C340.118,108.021 339.667,106.258 339.216,105.069 L337.576,100.6 L324.456,100.6 L322.816,105.069 C322.078,107.037 321.914,107.652 321.586,109.374 L314.862,109.374 C315.477,108.267 316.297,106.422 317.035,104.536 L326.055,80.879 C326.834,78.829 327.162,77.804 327.367,76.738 L334.501,76.738 C334.706,77.722 334.952,78.378 335.895,80.879 L344.997,104.536 C346.022,107.16 346.514,108.308 347.088,109.374 Z M336.1,95.885 L331.713,83.749 C331.549,83.298 331.426,82.806 330.975,81.453 C330.319,83.38 330.319,83.38 330.196,83.749 L325.932,95.885 L336.1,95.885 Z M377.182,96.664 L377.182,100.969 C377.182,103.388 377.223,104.495 377.469,106.299 C374.558,107.898 373.082,108.554 370.909,109.128 C369.064,109.62 366.891,109.907 364.882,109.907 C359.757,109.907 355.821,108.308 353.238,105.192 C350.737,102.24 349.384,97.812 349.384,92.728 C349.384,86.209 351.68,81.207 355.944,78.337 C358.486,76.656 361.274,75.918 365.046,75.918 C368.777,75.918 372.18,77.189 374.476,79.444 C375.911,80.838 376.649,82.027 377.51,84.323 L371.893,85.84 C370.54,82.109 368.572,80.797 364.349,80.797 C361.93,80.797 359.675,81.699 358.117,83.298 C356.067,85.43 355.083,88.464 355.083,92.646 C355.083,96.869 356.026,100.067 357.871,102.24 C359.552,104.208 361.766,105.069 365.005,105.069 C367.793,105.069 369.884,104.536 371.975,103.224 L371.975,96.541 L369.761,96.541 C367.67,96.541 366.809,96.582 365.579,96.787 L365.579,91.498 C367.055,91.703 367.957,91.744 370.499,91.744 L372.631,91.744 C374.517,91.744 375.706,91.703 377.469,91.58 C377.264,93.097 377.182,94.368 377.182,96.664 Z M406.128,104.208 L406.128,109.661 C404.652,109.456 403.34,109.374 400.839,109.374 L388.047,109.374 C385.587,109.374 384.48,109.415 382.84,109.497 C383.086,107.857 383.168,106.504 383.168,104.085 L383.168,81.904 C383.168,79.772 383.086,78.542 382.84,76.615 C384.48,76.697 385.546,76.738 388.047,76.738 L400.429,76.738 C402.479,76.738 403.832,76.656 405.718,76.451 L405.718,81.863 C404.16,81.658 402.848,81.576 400.429,81.576 L388.621,81.576 L388.621,90.022 L398.584,90.022 C400.716,90.022 402.11,89.94 403.914,89.735 L403.914,95.106 C402.233,94.86 401.126,94.819 398.584,94.819 L388.58,94.819 L388.58,104.495 L400.88,104.495 C403.176,104.495 404.365,104.413 406.128,104.208 Z M430.646,109.374 L425.808,109.374 C425.603,108.062 424.947,106.135 424.004,103.839 L418.1,89.776 C417.321,87.931 416.952,86.824 416.009,83.503 C416.173,85.676 416.337,89.038 416.337,89.94 L416.337,103.388 C416.337,106.217 416.419,107.775 416.665,109.374 L410.925,109.374 C411.171,107.734 411.253,106.135 411.253,103.388 L411.253,82.806 C411.253,80.141 411.171,78.419 410.925,76.738 L418.428,76.738 C418.715,78.173 419.248,79.895 419.945,81.617 L428.268,101.953 L436.55,81.617 C437.37,79.608 437.739,78.296 438.026,76.738 L445.57,76.738 C445.324,78.706 445.242,80.059 445.242,82.806 L445.242,103.388 C445.242,106.381 445.324,107.857 445.57,109.374 L439.83,109.374 C440.076,107.693 440.158,106.217 440.158,103.388 L440.158,89.776 C440.322,86.209 440.445,84.118 440.486,83.503 C439.953,85.717 439.174,88.013 438.6,89.489 L432.45,103.921 C431.63,105.848 430.892,108.144 430.646,109.374 Z M474.68,104.208 L474.68,109.661 C473.204,109.456 471.892,109.374 469.391,109.374 L456.599,109.374 C454.139,109.374 453.032,109.415 451.392,109.497 C451.638,107.857 451.72,106.504 451.72,104.085 L451.72,81.904 C451.72,79.772 451.638,78.542 451.392,76.615 C453.032,76.697 454.098,76.738 456.599,76.738 L468.981,76.738 C471.031,76.738 472.384,76.656 474.27,76.451 L474.27,81.863 C472.712,81.658 471.4,81.576 468.981,81.576 L457.173,81.576 L457.173,90.022 L467.136,90.022 C469.268,90.022 470.662,89.94 472.466,89.735 L472.466,95.106 C470.785,94.86 469.678,94.819 467.136,94.819 L457.132,94.819 L457.132,104.495 L469.432,104.495 C471.728,104.495 472.917,104.413 474.68,104.208 Z M507.316,109.374 L500.838,109.374 C500.141,107.98 499.403,106.791 498.214,104.987 L487.636,89.038 C486.857,87.808 485.832,86.045 484.848,84.118 C484.889,84.692 484.889,84.692 485.012,86.209 C485.053,86.988 485.135,88.833 485.135,89.776 L485.135,103.224 C485.135,105.971 485.258,107.898 485.463,109.374 L479.477,109.374 C479.682,108.021 479.805,105.971 479.805,103.183 L479.805,82.027 C479.805,79.895 479.723,78.419 479.477,76.738 L485.873,76.738 C486.242,77.763 486.98,78.993 488.374,81.084 L498.747,96.705 C499.731,98.181 501.043,100.313 501.945,101.953 C501.781,100.354 501.658,97.894 501.658,96.172 L501.658,82.396 C501.658,79.977 501.576,78.296 501.33,76.738 L507.316,76.738 C507.07,78.378 506.988,79.895 506.988,82.396 L506.988,104.085 C506.988,106.381 507.07,107.939 507.316,109.374 Z M527.529,81.658 L527.529,104.044 C527.529,106.258 527.611,107.693 527.857,109.374 L521.666,109.374 C521.912,107.652 521.994,106.258 521.994,104.044 L521.994,81.658 L516.459,81.658 C514.04,81.658 512.277,81.74 510.842,81.945 L510.842,76.451 C512.318,76.656 514.081,76.738 516.418,76.738 L532.654,76.738 C535.606,76.738 537.123,76.656 538.681,76.451 L538.681,81.945 C537.164,81.74 535.606,81.658 532.654,81.658 L527.529,81.658 Z M209,147.821 L214.904,147.206 C215.068,149.051 215.314,149.871 216.052,150.814 C217.241,152.372 219.373,153.233 222.038,153.233 C226.138,153.233 228.598,151.388 228.598,148.313 C228.598,146.632 227.819,145.238 226.548,144.541 C225.318,143.885 225.072,143.844 219.414,142.532 C216.339,141.835 214.699,141.179 213.223,140.031 C211.132,138.391 210.066,136.136 210.066,133.389 C210.066,127.69 214.658,124 221.71,124 C226.384,124 229.91,125.435 231.919,128.141 C232.944,129.494 233.436,130.724 233.928,132.897 L228.065,133.594 C227.819,132.2 227.532,131.503 226.835,130.683 C225.769,129.412 223.965,128.715 221.71,128.715 C218.143,128.715 215.724,130.519 215.724,133.184 C215.724,134.906 216.626,136.095 218.512,136.915 C219.414,137.284 219.742,137.366 224.293,138.391 C227.532,139.088 229.5,139.867 230.976,140.892 C233.313,142.614 234.379,144.869 234.379,147.944 C234.379,150.855 233.477,153.233 231.796,154.914 C229.623,157.005 226.384,158.03 221.997,158.03 C218.635,158.03 215.355,157.21 213.387,155.898 C211.747,154.791 210.558,153.233 209.779,151.224 C209.41,150.281 209.246,149.502 209,147.821 Z M262.669,152.208 L262.669,157.661 C261.193,157.456 259.881,157.374 257.38,157.374 L244.588,157.374 C242.128,157.374 241.021,157.415 239.381,157.497 C239.627,155.857 239.709,154.504 239.709,152.085 L239.709,129.904 C239.709,127.772 239.627,126.542 239.381,124.615 C241.021,124.697 242.087,124.738 244.588,124.738 L256.97,124.738 C259.02,124.738 260.373,124.656 262.259,124.451 L262.259,129.863 C260.701,129.658 259.389,129.576 256.97,129.576 L245.162,129.576 L245.162,138.022 L255.125,138.022 C257.257,138.022 258.651,137.94 260.455,137.735 L260.455,143.106 C258.774,142.86 257.667,142.819 255.125,142.819 L245.121,142.819 L245.121,152.495 L257.421,152.495 C259.717,152.495 260.906,152.413 262.669,152.208 Z M295.059,157.374 L288.294,157.374 C288.212,156.39 287.515,154.299 286.162,150.814 C283.948,145.156 282.513,143.639 279.356,143.639 L273.247,143.639 L273.247,152.003 C273.247,154.463 273.329,155.775 273.575,157.374 L267.466,157.374 C267.712,155.652 267.794,154.545 267.794,152.044 L267.794,129.945 C267.794,127.772 267.712,126.542 267.466,124.615 C269.188,124.697 270.459,124.738 272.714,124.738 L282.554,124.738 C288.786,124.738 292.353,127.854 292.353,133.266 C292.353,135.89 291.656,137.94 290.262,139.375 C289.114,140.564 288.048,141.097 285.711,141.753 C288.294,142.573 289.073,143.721 293.132,153.315 C293.46,154.053 294.485,156.267 295.059,157.374 Z M273.247,138.965 L281.488,138.965 C283.005,138.965 284.44,138.432 285.383,137.489 C286.244,136.628 286.695,135.439 286.695,133.881 C286.695,130.929 285.014,129.412 281.652,129.412 L273.247,129.412 L273.247,138.965 Z M313.837,157.374 L306.785,157.374 C306.621,156.472 306.17,155.201 305.473,153.274 L296.699,129.617 C295.797,127.157 295.223,125.845 294.649,124.738 L301.414,124.738 C301.619,126.091 302.029,127.567 302.521,129.043 L309.327,149.297 C309.532,149.789 310.024,151.429 310.311,152.413 C310.68,151.183 311.008,150.035 311.254,149.297 L318.06,129.043 C318.716,126.993 318.962,126.132 319.167,124.738 L325.932,124.738 C325.358,125.763 324.866,126.911 323.882,129.617 L315.108,153.274 C314.411,155.119 314.001,156.431 313.837,157.374 Z M329.253,124.738 L335.485,124.738 C335.239,126.296 335.157,127.567 335.157,130.027 L335.157,152.085 C335.157,154.504 335.239,155.816 335.485,157.374 L329.253,157.374 C329.499,155.816 329.581,154.504 329.581,152.085 L329.581,130.027 C329.581,127.485 329.499,126.378 329.253,124.738 Z M363.283,146.386 L369.146,147.411 C368.367,150.363 367.629,151.962 366.399,153.561 C364.062,156.431 360.126,158.03 355.206,158.03 C350.737,158.03 347.17,156.677 344.669,154.094 C341.799,151.101 340.2,146.468 340.2,141.22 C340.2,135.808 341.922,131.052 344.997,127.977 C347.457,125.476 351.147,124.082 355.247,124.082 C358.445,124.082 360.864,124.697 363.119,126.05 C364.964,127.198 366.44,128.715 367.465,130.519 C367.957,131.38 368.244,132.118 368.736,133.676 L363.037,134.988 C362.463,133.184 362.094,132.405 361.274,131.462 C359.88,129.781 357.83,128.92 355.288,128.92 C349.466,128.92 345.94,133.471 345.94,141.015 C345.94,148.518 349.548,153.192 355.288,153.192 C358.158,153.192 360.618,152.085 361.93,150.158 C362.627,149.133 362.955,148.272 363.283,146.386 Z M397.067,152.208 L397.067,157.661 C395.591,157.456 394.279,157.374 391.778,157.374 L378.986,157.374 C376.526,157.374 375.419,157.415 373.779,157.497 C374.025,155.857 374.107,154.504 374.107,152.085 L374.107,129.904 C374.107,127.772 374.025,126.542 373.779,124.615 C375.419,124.697 376.485,124.738 378.986,124.738 L391.368,124.738 C393.418,124.738 394.771,124.656 396.657,124.451 L396.657,129.863 C395.099,129.658 393.787,129.576 391.368,129.576 L379.56,129.576 L379.56,138.022 L389.523,138.022 C391.655,138.022 393.049,137.94 394.853,137.735 L394.853,143.106 C393.172,142.86 392.065,142.819 389.523,142.819 L379.519,142.819 L379.519,152.495 L391.819,152.495 C394.115,152.495 395.304,152.413 397.067,152.208 Z M400.798,147.821 L406.702,147.206 C406.866,149.051 407.112,149.871 407.85,150.814 C409.039,152.372 411.171,153.233 413.836,153.233 C417.936,153.233 420.396,151.388 420.396,148.313 C420.396,146.632 419.617,145.238 418.346,144.541 C417.116,143.885 416.87,143.844 411.212,142.532 C408.137,141.835 406.497,141.179 405.021,140.031 C402.93,138.391 401.864,136.136 401.864,133.389 C401.864,127.69 406.456,124 413.508,124 C418.182,124 421.708,125.435 423.717,128.141 C424.742,129.494 425.234,130.724 425.726,132.897 L419.863,133.594 C419.617,132.2 419.33,131.503 418.633,130.683 C417.567,129.412 415.763,128.715 413.508,128.715 C409.941,128.715 407.522,130.519 407.522,133.184 C407.522,134.906 408.424,136.095 410.31,136.915 C411.212,137.284 411.54,137.366 416.091,138.391 C419.33,139.088 421.298,139.867 422.774,140.892 C425.111,142.614 426.177,144.869 426.177,147.944 C426.177,150.855 425.275,153.233 423.594,154.914 C421.421,157.005 418.182,158.03 413.795,158.03 C410.433,158.03 407.153,157.21 405.185,155.898 C403.545,154.791 402.356,153.233 401.577,151.224 C401.208,150.281 401.044,149.502 400.798,147.821 Z" id="COMPASS-MANAGEMENT-S"></path>
        </g>
    </g>
</svg>